<mxfile host="Electron" agent="Mozilla/5.0 (Macintosh; Intel Mac OS X 10_15_7) AppleWebKit/537.36 (KHTML, like Gecko) draw.io/28.0.4 Chrome/138.0.7204.97 Electron/37.2.1 Safari/537.36" version="28.0.4" pages="2">
  <diagram name="Overall Architecture" id="FfH4SfIc7zyHaF40ghCk">
    <mxGraphModel dx="960" dy="661" grid="1" gridSize="10" guides="1" tooltips="1" connect="1" arrows="1" fold="1" page="1" pageScale="1" pageWidth="850" pageHeight="1100" math="0" shadow="0">
      <root>
        <mxCell id="0" />
        <mxCell id="1" parent="0" />
        <mxCell id="2T13XULLMaZUOvhvDk_i-1" value="" style="ellipse;shape=cloud;whiteSpace=wrap;html=1;" vertex="1" parent="1">
          <mxGeometry x="270" y="310" width="220" height="180" as="geometry" />
        </mxCell>
        <mxCell id="2T13XULLMaZUOvhvDk_i-2" value="DigitalOcean" style="text;html=1;align=center;verticalAlign=middle;whiteSpace=wrap;rounded=0;" vertex="1" parent="1">
          <mxGeometry x="405" y="320" width="60" height="30" as="geometry" />
        </mxCell>
        <mxCell id="2T13XULLMaZUOvhvDk_i-10" value="dtls" style="edgeStyle=orthogonalEdgeStyle;rounded=0;orthogonalLoop=1;jettySize=auto;html=1;" edge="1" parent="1" source="2T13XULLMaZUOvhvDk_i-3" target="2T13XULLMaZUOvhvDk_i-9">
          <mxGeometry relative="1" as="geometry" />
        </mxCell>
        <mxCell id="2T13XULLMaZUOvhvDk_i-3" value="Public Server" style="rounded=0;whiteSpace=wrap;html=1;" vertex="1" parent="1">
          <mxGeometry x="320" y="360" width="120" height="80" as="geometry" />
        </mxCell>
        <mxCell id="2T13XULLMaZUOvhvDk_i-4" value="User" style="shape=umlActor;verticalLabelPosition=bottom;verticalAlign=top;html=1;outlineConnect=0;" vertex="1" parent="1">
          <mxGeometry x="80" y="40" width="40" height="80" as="geometry" />
        </mxCell>
        <mxCell id="2T13XULLMaZUOvhvDk_i-5" value="Browser" style="rounded=0;whiteSpace=wrap;html=1;" vertex="1" parent="1">
          <mxGeometry x="160" y="40" width="120" height="80" as="geometry" />
        </mxCell>
        <mxCell id="2T13XULLMaZUOvhvDk_i-6" value="Next.js app" style="rounded=0;whiteSpace=wrap;html=1;" vertex="1" parent="1">
          <mxGeometry x="160" y="120" width="120" height="80" as="geometry" />
        </mxCell>
        <mxCell id="2T13XULLMaZUOvhvDk_i-8" value="TCP + SSL/TLS" style="rounded=0;orthogonalLoop=1;jettySize=auto;html=1;" edge="1" parent="1" source="2T13XULLMaZUOvhvDk_i-7" target="2T13XULLMaZUOvhvDk_i-3">
          <mxGeometry relative="1" as="geometry" />
        </mxCell>
        <mxCell id="2T13XULLMaZUOvhvDk_i-7" value="WebSocket" style="rounded=0;whiteSpace=wrap;html=1;" vertex="1" parent="1">
          <mxGeometry x="160" y="200" width="120" height="80" as="geometry" />
        </mxCell>
        <mxCell id="2T13XULLMaZUOvhvDk_i-12" value="2.4GHz&lt;div&gt;WiFi 6&lt;/div&gt;&lt;div&gt;dtls&lt;/div&gt;" style="rounded=0;orthogonalLoop=1;jettySize=auto;html=1;" edge="1" parent="1" source="2T13XULLMaZUOvhvDk_i-9" target="2T13XULLMaZUOvhvDk_i-11">
          <mxGeometry relative="1" as="geometry" />
        </mxCell>
        <mxCell id="2T13XULLMaZUOvhvDk_i-14" value="Ethernet&lt;div&gt;dtls&lt;/div&gt;" style="rounded=0;orthogonalLoop=1;jettySize=auto;html=1;" edge="1" parent="1" source="2T13XULLMaZUOvhvDk_i-9" target="2T13XULLMaZUOvhvDk_i-13">
          <mxGeometry relative="1" as="geometry" />
        </mxCell>
        <mxCell id="2T13XULLMaZUOvhvDk_i-9" value="box0.srpn.wtf" style="rounded=0;whiteSpace=wrap;html=1;" vertex="1" parent="1">
          <mxGeometry x="320" y="600" width="120" height="80" as="geometry" />
        </mxCell>
        <mxCell id="2T13XULLMaZUOvhvDk_i-11" value="Robot&lt;div&gt;esp32-c6&lt;/div&gt;" style="rounded=0;whiteSpace=wrap;html=1;" vertex="1" parent="1">
          <mxGeometry x="200" y="800" width="120" height="80" as="geometry" />
        </mxCell>
        <mxCell id="2T13XULLMaZUOvhvDk_i-15" value="IrDA&lt;div&gt;dtls&lt;/div&gt;" style="edgeStyle=orthogonalEdgeStyle;rounded=0;orthogonalLoop=1;jettySize=auto;html=1;" edge="1" parent="1" source="2T13XULLMaZUOvhvDk_i-13" target="2T13XULLMaZUOvhvDk_i-11">
          <mxGeometry relative="1" as="geometry" />
        </mxCell>
        <mxCell id="2T13XULLMaZUOvhvDk_i-13" value="Base Station" style="rounded=0;whiteSpace=wrap;html=1;" vertex="1" parent="1">
          <mxGeometry x="440" y="800" width="120" height="80" as="geometry" />
        </mxCell>
      </root>
    </mxGraphModel>
  </diagram>
  <diagram id="a1MO9OMB0rFP7_fQmMWY" name="Robot Architecture ESP32">
    <mxGraphModel dx="1248" dy="859" grid="1" gridSize="10" guides="1" tooltips="1" connect="1" arrows="1" fold="1" page="1" pageScale="1" pageWidth="850" pageHeight="1100" math="0" shadow="0">
      <root>
        <mxCell id="0" />
        <mxCell id="1" parent="0" />
        <mxCell id="pCKAjehkikN2vbH76dtw-4" style="rounded=0;orthogonalLoop=1;jettySize=auto;html=1;" edge="1" parent="1" source="pCKAjehkikN2vbH76dtw-1" target="pCKAjehkikN2vbH76dtw-2">
          <mxGeometry relative="1" as="geometry" />
        </mxCell>
        <mxCell id="pCKAjehkikN2vbH76dtw-5" style="rounded=0;orthogonalLoop=1;jettySize=auto;html=1;" edge="1" parent="1" source="pCKAjehkikN2vbH76dtw-1" target="pCKAjehkikN2vbH76dtw-3">
          <mxGeometry relative="1" as="geometry" />
        </mxCell>
        <mxCell id="pCKAjehkikN2vbH76dtw-7" style="edgeStyle=orthogonalEdgeStyle;rounded=0;orthogonalLoop=1;jettySize=auto;html=1;" edge="1" parent="1" source="pCKAjehkikN2vbH76dtw-1" target="pCKAjehkikN2vbH76dtw-6">
          <mxGeometry relative="1" as="geometry" />
        </mxCell>
        <mxCell id="pCKAjehkikN2vbH76dtw-1" value="esp32-c6" style="rounded=0;whiteSpace=wrap;html=1;" vertex="1" parent="1">
          <mxGeometry x="360" y="280" width="120" height="80" as="geometry" />
        </mxCell>
        <mxCell id="pCKAjehkikN2vbH76dtw-10" style="edgeStyle=orthogonalEdgeStyle;rounded=0;orthogonalLoop=1;jettySize=auto;html=1;" edge="1" parent="1" source="pCKAjehkikN2vbH76dtw-2" target="pCKAjehkikN2vbH76dtw-8">
          <mxGeometry relative="1" as="geometry" />
        </mxCell>
        <mxCell id="pCKAjehkikN2vbH76dtw-2" value="Stepper Driver&lt;div&gt;TMCXXXX&lt;/div&gt;" style="rounded=0;whiteSpace=wrap;html=1;" vertex="1" parent="1">
          <mxGeometry x="280" y="440" width="120" height="80" as="geometry" />
        </mxCell>
        <mxCell id="pCKAjehkikN2vbH76dtw-11" style="edgeStyle=orthogonalEdgeStyle;rounded=0;orthogonalLoop=1;jettySize=auto;html=1;" edge="1" parent="1" source="pCKAjehkikN2vbH76dtw-3" target="pCKAjehkikN2vbH76dtw-9">
          <mxGeometry relative="1" as="geometry" />
        </mxCell>
        <mxCell id="pCKAjehkikN2vbH76dtw-3" value="Stepper Driver&lt;div&gt;TMCXXXX&lt;/div&gt;" style="rounded=0;whiteSpace=wrap;html=1;" vertex="1" parent="1">
          <mxGeometry x="440" y="440" width="120" height="80" as="geometry" />
        </mxCell>
        <mxCell id="pCKAjehkikN2vbH76dtw-6" value="Lighting AUX" style="rounded=0;whiteSpace=wrap;html=1;" vertex="1" parent="1">
          <mxGeometry x="560" y="280" width="120" height="80" as="geometry" />
        </mxCell>
        <mxCell id="pCKAjehkikN2vbH76dtw-8" value="Stepper Motor" style="rounded=0;whiteSpace=wrap;html=1;" vertex="1" parent="1">
          <mxGeometry x="280" y="600" width="120" height="80" as="geometry" />
        </mxCell>
        <mxCell id="pCKAjehkikN2vbH76dtw-9" value="Stepper Motor" style="rounded=0;whiteSpace=wrap;html=1;" vertex="1" parent="1">
          <mxGeometry x="440" y="600" width="120" height="80" as="geometry" />
        </mxCell>
        <mxCell id="pCKAjehkikN2vbH76dtw-13" style="edgeStyle=orthogonalEdgeStyle;rounded=0;orthogonalLoop=1;jettySize=auto;html=1;startArrow=classic;startFill=1;" edge="1" parent="1" source="pCKAjehkikN2vbH76dtw-12" target="pCKAjehkikN2vbH76dtw-1">
          <mxGeometry relative="1" as="geometry" />
        </mxCell>
        <mxCell id="pCKAjehkikN2vbH76dtw-12" value="IrDA transceiver" style="rounded=0;whiteSpace=wrap;html=1;" vertex="1" parent="1">
          <mxGeometry x="160" y="280" width="120" height="80" as="geometry" />
        </mxCell>
        <mxCell id="pCKAjehkikN2vbH76dtw-19" style="edgeStyle=orthogonalEdgeStyle;rounded=0;orthogonalLoop=1;jettySize=auto;html=1;entryX=0;entryY=0.5;entryDx=0;entryDy=0;fillColor=#f8cecc;strokeColor=#b85450;" edge="1" parent="1" source="pCKAjehkikN2vbH76dtw-16" target="pCKAjehkikN2vbH76dtw-18">
          <mxGeometry relative="1" as="geometry" />
        </mxCell>
        <mxCell id="pCKAjehkikN2vbH76dtw-20" style="edgeStyle=orthogonalEdgeStyle;rounded=0;orthogonalLoop=1;jettySize=auto;html=1;fillColor=#f8cecc;strokeColor=#b85450;" edge="1" parent="1" source="pCKAjehkikN2vbH76dtw-16" target="pCKAjehkikN2vbH76dtw-2">
          <mxGeometry relative="1" as="geometry">
            <Array as="points">
              <mxPoint x="120" y="480" />
            </Array>
          </mxGeometry>
        </mxCell>
        <mxCell id="pCKAjehkikN2vbH76dtw-21" style="edgeStyle=orthogonalEdgeStyle;rounded=0;orthogonalLoop=1;jettySize=auto;html=1;fillColor=#f8cecc;strokeColor=#b85450;" edge="1" parent="1" source="pCKAjehkikN2vbH76dtw-16" target="pCKAjehkikN2vbH76dtw-3">
          <mxGeometry relative="1" as="geometry">
            <Array as="points">
              <mxPoint x="120" y="400" />
              <mxPoint x="500" y="400" />
            </Array>
          </mxGeometry>
        </mxCell>
        <mxCell id="pCKAjehkikN2vbH76dtw-16" value="" style="rounded=0;whiteSpace=wrap;html=1;" vertex="1" parent="1">
          <mxGeometry x="80" y="40" width="200" height="80" as="geometry" />
        </mxCell>
        <mxCell id="pCKAjehkikN2vbH76dtw-14" value="" style="html=1;verticalLabelPosition=bottom;align=center;labelBackgroundColor=#ffffff;verticalAlign=top;strokeWidth=2;strokeColor=#0080F0;shadow=0;dashed=0;shape=mxgraph.ios7.icons.battery;" vertex="1" parent="1">
          <mxGeometry x="100" y="60" width="80" height="40" as="geometry" />
        </mxCell>
        <mxCell id="pCKAjehkikN2vbH76dtw-15" value="" style="html=1;verticalLabelPosition=bottom;align=center;labelBackgroundColor=#ffffff;verticalAlign=top;strokeWidth=2;strokeColor=#0080F0;shadow=0;dashed=0;shape=mxgraph.ios7.icons.battery;" vertex="1" parent="1">
          <mxGeometry x="180" y="60" width="80" height="40" as="geometry" />
        </mxCell>
        <mxCell id="pCKAjehkikN2vbH76dtw-17" value="Battery - 24v LiFePO4" style="text;html=1;align=center;verticalAlign=middle;whiteSpace=wrap;rounded=0;" vertex="1" parent="1">
          <mxGeometry x="110" y="10" width="140" height="30" as="geometry" />
        </mxCell>
        <mxCell id="pCKAjehkikN2vbH76dtw-23" style="edgeStyle=orthogonalEdgeStyle;rounded=0;orthogonalLoop=1;jettySize=auto;html=1;fillColor=#f8cecc;strokeColor=#b85450;" edge="1" parent="1" source="pCKAjehkikN2vbH76dtw-18" target="pCKAjehkikN2vbH76dtw-22">
          <mxGeometry relative="1" as="geometry" />
        </mxCell>
        <mxCell id="pCKAjehkikN2vbH76dtw-25" style="edgeStyle=orthogonalEdgeStyle;rounded=0;orthogonalLoop=1;jettySize=auto;html=1;fillColor=#f8cecc;strokeColor=#b85450;" edge="1" parent="1" source="pCKAjehkikN2vbH76dtw-18" target="pCKAjehkikN2vbH76dtw-6">
          <mxGeometry relative="1" as="geometry" />
        </mxCell>
        <mxCell id="pCKAjehkikN2vbH76dtw-18" value="Buck converter&lt;div&gt;control voltage&lt;/div&gt;&lt;div&gt;5v or 12v&lt;/div&gt;" style="rounded=0;whiteSpace=wrap;html=1;" vertex="1" parent="1">
          <mxGeometry x="360" y="40" width="120" height="80" as="geometry" />
        </mxCell>
        <mxCell id="pCKAjehkikN2vbH76dtw-24" style="edgeStyle=orthogonalEdgeStyle;rounded=0;orthogonalLoop=1;jettySize=auto;html=1;fillColor=#f8cecc;strokeColor=#b85450;" edge="1" parent="1" source="pCKAjehkikN2vbH76dtw-22" target="pCKAjehkikN2vbH76dtw-1">
          <mxGeometry relative="1" as="geometry" />
        </mxCell>
        <mxCell id="pCKAjehkikN2vbH76dtw-22" value="LDO 3v3" style="rounded=0;whiteSpace=wrap;html=1;" vertex="1" parent="1">
          <mxGeometry x="360" y="160" width="120" height="80" as="geometry" />
        </mxCell>
      </root>
    </mxGraphModel>
  </diagram>
</mxfile>
